<?xml version="1.0" encoding="utf-8"?>
<!-- Generator: Adobe Illustrator 24.1.3, SVG Export Plug-In . SVG Version: 6.00 Build 0)  -->
<svg version="1.1" id="Layer_1" xmlns="http://www.w3.org/2000/svg" xmlns:xlink="http://www.w3.org/1999/xlink" x="0px" y="0px"
	 viewBox="0 0 376 114.1" style="enable-background:new 0 0 376 114.1;" xml:space="preserve">
<style type="text/css">
	.st0{fill:#D15E14;}
	.st1{fill:#323E48;}
</style>
<g>
	<g>
		<polygon class="st0" points="23.3,20 23.4,20 23.4,20 23.3,20 23.3,20 		"/>
		<path class="st0" d="M28.8,15.5c-1.1-0.2-2.2-0.3-3.2-0.3c-0.5,0-1,0.1-1.4,0.1L24,8.9V7.9c0.4-0.2,1-0.3,1.7-0.3
			c0.9,0,1.9,0.1,3,0.3c0.9,0.1,1.9,0.3,2.9,0.3l0.3,7.6C30.8,15.8,29.8,15.7,28.8,15.5L28.8,15.5z M17.9,15.5c-1,0.2-2,0.3-3.1,0.4
			l0.3-7.6c1-0.1,2-0.2,2.9-0.3c1.1-0.2,2.1-0.3,3-0.3c0.7,0,1.2,0.1,1.7,0.3v1.1l-0.2,6.4c-0.4-0.1-0.9-0.1-1.4-0.1
			C20.1,15.2,19,15.3,17.9,15.5L17.9,15.5z M34.1,11V9.6h-0.9V7.1h-0.6c-1.3,0-2.5-0.2-3.8-0.4c-1.1-0.2-2.2-0.3-3.2-0.3
			c-0.9,0-1.7,0.1-2.3,0.4c-0.6-0.3-1.4-0.4-2.3-0.4c-1,0-2,0.2-3.2,0.3c-1.2,0.2-2.5,0.4-3.8,0.4h-0.6v2.5h-0.9V11h0.9v2h-0.9v1.4
			h0.9v2.7h0.6c1.4,0,2.7-0.2,4-0.4c1.1-0.2,2.1-0.3,3-0.3c0.7,0,1.2,0.1,1.7,0.3v0h1.2v0c0.4-0.2,0.9-0.3,1.7-0.3
			c0.9,0,1.9,0.2,3,0.3c1.3,0.2,2.6,0.4,4,0.4h0.6v-2.7H34V13h-0.9v-2H34.1L34.1,11z"/>
		<path class="st0" d="M18.1,9C18,9,18,9,17.9,9c-0.6,0.1-1.1,0.2-1.7,0.2l0,1c0.6-0.1,1.3-0.2,1.9-0.3c0,0,0,0,0,0V9L18.1,9z"/>
		<path class="st0" d="M18.8,8.9v1c1-0.1,2-0.2,2.8-0.2l0-1C20.7,8.7,19.8,8.8,18.8,8.9L18.8,8.9z"/>
		<path class="st0" d="M18.1,13.4c-0.1,0-0.1,0-0.2,0c-0.6,0.1-1.2,0.2-1.9,0.3l0,1c0.7-0.1,1.4-0.2,2.1-0.3c0,0,0,0,0,0V13.4
			L18.1,13.4z"/>
		<path class="st0" d="M18.8,13.3v1c1-0.1,1.8-0.2,2.6-0.2l0-1C20.6,13.1,19.7,13.2,18.8,13.3L18.8,13.3z"/>
		<path class="st0" d="M17.9,11.2v1c0,0,0.1,0,0.1,0c1.3-0.2,2.5-0.4,3.5-0.3l0-1C20.4,10.9,19.2,11.1,17.9,11.2L17.9,11.2z"/>
		<path class="st0" d="M17.2,11.3c-0.4,0.1-0.7,0.1-1.1,0.1l0,1c0.4,0,0.8-0.1,1.1-0.1V11.3L17.2,11.3z"/>
		<path class="st0" d="M27.4,8.9c-0.8-0.1-1.6-0.2-2.4-0.1l0,1c0.7-0.1,1.5,0,2.3,0.1V8.9L27.4,8.9z"/>
		<path class="st0" d="M30.5,9.3c-0.6-0.1-1.2-0.2-1.7-0.2C28.6,9,28.4,9,28.2,9v1c0.2,0,0.3,0,0.5,0.1c0.6,0.1,1.3,0.2,1.9,0.3
			L30.5,9.3L30.5,9.3z"/>
		<path class="st0" d="M27.2,11c-0.7-0.1-1.4-0.1-2.1-0.1l0,1c0.6,0,1.3,0,2.1,0.1V11L27.2,11z"/>
		<path class="st0" d="M30.6,11.5c-0.6-0.1-1.2-0.2-1.8-0.2c-0.3,0-0.5-0.1-0.8-0.1v1c0.2,0,0.4,0.1,0.7,0.1c0.6,0.1,1.3,0.2,2,0.3
			L30.6,11.5L30.6,11.5z"/>
		<path class="st0" d="M28.7,14.4c0.7,0.1,1.3,0.2,2,0.3l0-1c-0.6-0.1-1.3-0.2-1.9-0.3c0,0-0.1,0-0.1,0V14.4L28.7,14.4z"/>
		<path class="st0" d="M28,13.3c-1-0.1-1.9-0.2-2.7-0.2l0,1c0.8,0,1.7,0.1,2.7,0.2V13.3L28,13.3z"/>
		<path class="st0" d="M22.1,28.9l1.3-3.1l1.3,3.1l3.4,0.2l-2.6,2.2l0.8,3.3l-2.9-1.8l-2.9,1.8l0.8-3.3l-2.6-2.2L22.1,28.9
			L22.1,28.9z M14.4,27.8L14.4,27.8l5.4,4l-2.1,6.5c0,0,0,0,0,0c0,0,0,0,0,0l5.5-4l5.5,4c0,0,0,0,0,0c0,0,0,0,0-0.1l-2.1-6.4l5.4-4
			v0c0,0,0,0,0-0.1c0,0,0,0-0.1,0v0h-6.7l-2.1-6.4h0c0,0,0,0,0,0s0,0,0,0h0l-2.1,6.4L14.4,27.8L14.4,27.8
			C14.4,27.7,14.4,27.7,14.4,27.8C14.4,27.7,14.4,27.8,14.4,27.8L14.4,27.8z"/>
		<path class="st0" d="M36.8,35.9c-0.5,0.5-1.1,0.9-1.8,1.1c0.1-0.7,0.4-1.4,0.9-1.9c0.5-0.5,1.1-0.9,1.8-1.1
			C37.6,34.6,37.3,35.3,36.8,35.9L36.8,35.9z M34.2,31.6c-0.1-0.7,0-1.5,0.4-2.1c0.5,0.5,0.8,1.2,0.9,1.9c0.1,0.7,0,1.5-0.4,2.1
			C34.6,33,34.3,32.4,34.2,31.6L34.2,31.6z M35.7,26.1c-0.1-0.7-0.1-1.5,0.2-2.1c0.5,0.5,0.9,1.2,1,1.9c0.1,0.7,0.1,1.5-0.2,2.1
			C36.2,27.5,35.8,26.8,35.7,26.1L35.7,26.1z M39.1,27.7c0.1,0.7-0.1,1.4-0.5,2.1c-0.4,0.6-0.9,1.1-1.6,1.4
			c-0.1-0.7,0.1-1.4,0.5-2.1C38,28.5,38.5,28,39.1,27.7L39.1,27.7z M33.8,41.4c-0.6,0.4-1.3,0.7-2,0.7c0.2-0.7,0.7-1.3,1.3-1.7
			c0.6-0.4,1.3-0.7,2-0.7C34.9,40.4,34.4,41,33.8,41.4L33.8,41.4z M32.1,36.7c0.1-0.7,0.3-1.4,0.8-2c0.4,0.6,0.5,1.4,0.5,2.1
			c-0.1,0.7-0.3,1.4-0.8,2C32.2,38.2,32.1,37.5,32.1,36.7L32.1,36.7z M30.2,41.6C30,42.3,29.6,43,29,43.4c-0.2-0.7-0.2-1.4,0-2.1
			c0.2-0.7,0.6-1.3,1.2-1.8C30.4,40.2,30.4,40.9,30.2,41.6L30.2,41.6z M31.3,44.8c-0.4,0.6-0.9,1.1-1.6,1.4c-0.5,0.2-1,0.3-1.5,0.3
			l0,0c-0.2,0-0.4,0-0.6-0.1c0.4-0.6,0.9-1.1,1.6-1.4C29.9,44.8,30.6,44.7,31.3,44.8L31.3,44.8z M25,45.1c0.4-0.6,0.9-1.2,1.5-1.5
			c0.1,0.7-0.1,1.4-0.4,2.1c-0.3,0.6-0.9,1.2-1.5,1.5C24.5,46.5,24.7,45.7,25,45.1L25,45.1z M16.9,46.2c-0.7-0.3-1.2-0.8-1.6-1.4
			c0.7-0.1,1.4,0,2.1,0.3c0.7,0.3,1.2,0.8,1.6,1.4C18.3,46.6,17.6,46.5,16.9,46.2L16.9,46.2z M16.4,41.6c-0.2-0.7-0.2-1.4,0-2.1
			c0.6,0.5,1,1.1,1.2,1.8c0.2,0.7,0.2,1.4,0,2.1C17,43,16.6,42.3,16.4,41.6L16.4,41.6z M20,43.6c0.6,0.3,1.2,0.9,1.5,1.5
			c0.3,0.6,0.5,1.4,0.4,2.1c-0.6-0.3-1.2-0.9-1.5-1.5C20.1,45,20,44.3,20,43.6L20,43.6z M12.8,41.4c-0.6-0.4-1-1-1.3-1.7
			c0.7,0,1.4,0.3,2,0.7c0.6,0.4,1,1,1.3,1.7C14.1,42.1,13.4,41.8,12.8,41.4L12.8,41.4z M13.7,34.7c0.5,0.6,0.7,1.3,0.8,2
			c0.1,0.7-0.1,1.5-0.5,2.1c-0.5-0.6-0.7-1.3-0.8-2C13.2,36.1,13.3,35.4,13.7,34.7L13.7,34.7z M9.7,35.9c-0.5-0.5-0.8-1.2-0.9-1.9
			c0.7,0.2,1.3,0.5,1.8,1.1c0.5,0.5,0.8,1.2,0.9,1.9C10.9,36.8,10.2,36.4,9.7,35.9L9.7,35.9z M9.5,31.3c-0.7-0.3-1.2-0.8-1.6-1.4
			c-0.4-0.6-0.5-1.4-0.5-2.1C8.1,28,8.6,28.5,9,29.2C9.4,29.8,9.5,30.5,9.5,31.3L9.5,31.3z M9.7,25.9c0.1-0.7,0.5-1.4,1-1.9
			c0.3,0.7,0.4,1.4,0.2,2.1c-0.1,0.7-0.5,1.4-1,1.9C9.6,27.3,9.5,26.6,9.7,25.9L9.7,25.9z M11.1,31.5c0.1-0.7,0.4-1.4,0.9-1.9
			c0.3,0.6,0.5,1.4,0.4,2.1c-0.1,0.7-0.4,1.4-0.9,1.9C11.2,32.9,11,32.2,11.1,31.5L11.1,31.5z M36.8,32.4c1.1-0.3,2.1-1.1,2.7-2.1
			c0.6-1,0.8-2.2,0.5-3.3l-0.1-0.5l-0.5,0.1c-0.6,0.2-1.1,0.4-1.5,0.8c0.1-0.6,0.1-1.1,0-1.7c-0.2-1.1-0.9-2.2-1.8-2.8l-0.4-0.3
			L35.4,23c-0.6,1-0.8,2.2-0.6,3.3c0.2,1.1,0.9,2.1,1.8,2.8c-0.2,0.4-0.3,0.8-0.3,1.2c-0.3-0.8-0.8-1.4-1.4-2l-0.4-0.3l-0.3,0.4
			c-0.7,0.9-1,2.1-0.8,3.3c0.2,1.2,0.7,2.2,1.6,3l0,0c-0.3,0.4-0.5,0.8-0.6,1.2c-0.1-0.8-0.4-1.6-1-2.2L33,33.3l-0.4,0.4
			c-0.9,0.8-1.4,1.9-1.5,3c-0.1,1.2,0.3,2.3,1,3.2l0,0c-0.3,0.3-0.6,0.6-0.9,1c0.1-0.8-0.1-1.6-0.5-2.4l-0.2-0.5l-0.4,0.3
			c-1,0.6-1.7,1.5-2.1,2.7c-0.3,1.1-0.2,2.3,0.3,3.4l0,0c-0.4,0.2-0.7,0.5-1,0.8c0.2-0.8,0.2-1.6,0-2.4l-0.1-0.5l-0.5,0.2
			c-1.1,0.4-2,1.1-2.6,2.2c-0.5,1-0.7,2.1-0.4,3.2c-0.1,0.1-0.3,0.2-0.5,0.3c-0.2-0.1-0.3-0.2-0.5-0.3c0.3-1.1,0.1-2.2-0.4-3.2
			c-0.6-1-1.5-1.8-2.6-2.2l-0.5-0.2l-0.1,0.5c-0.2,0.8-0.2,1.6,0,2.4c-0.3-0.3-0.7-0.6-1-0.8l0,0c0.5-1,0.6-2.2,0.3-3.4
			c-0.3-1.1-1.1-2.1-2.1-2.7L16,38.1l-0.2,0.5c-0.4,0.7-0.5,1.6-0.5,2.4c-0.2-0.4-0.5-0.7-0.9-1l0,0c0.7-0.9,1.1-2.1,1-3.2
			c-0.1-1.2-0.6-2.2-1.5-3l-0.4-0.4l-0.3,0.4c-0.5,0.6-0.8,1.4-1,2.2c-0.1-0.4-0.4-0.8-0.6-1.2l0,0c0.9-0.7,1.5-1.8,1.6-3
			c0.1-1.2-0.1-2.3-0.8-3.3l-0.3-0.4l-0.4,0.3c-0.6,0.5-1.1,1.2-1.4,2c-0.1-0.4-0.2-0.8-0.4-1.2c0.9-0.7,1.6-1.7,1.8-2.8
			c0.2-1.2,0-2.3-0.6-3.3L11,22.5l-0.4,0.3c-0.9,0.7-1.6,1.7-1.8,2.8c-0.1,0.6-0.1,1.1,0,1.7c-0.5-0.4-1-0.6-1.5-0.8l-0.5-0.1
			L6.6,27c-0.3,1.1-0.1,2.3,0.5,3.3c0.6,1,1.5,1.7,2.7,2.1l0.4,0.1c0,0.4,0.1,0.7,0.3,1.1c-0.6-0.4-1.3-0.6-2.1-0.7l-0.5,0l0,0.5
			c0,1.2,0.4,2.3,1.2,3.2c0.8,0.9,1.9,1.4,3,1.5l0.5,0c0.1,0.4,0.3,0.7,0.5,1c-0.5-0.2-1-0.3-1.6-0.3c-0.2,0-0.4,0-0.6,0l-0.5,0.1
			l0.1,0.5c0.2,1.2,0.9,2.2,1.8,2.8c0.8,0.6,1.7,0.9,2.7,0.9c0.2,0,0.4,0,0.6,0l0.5-0.1c0.2,0.3,0.4,0.6,0.7,0.9
			c-0.7-0.1-1.5,0-2.2,0.2l-0.5,0.2l0.2,0.5c0.5,1.1,1.3,1.9,2.4,2.4c0.6,0.3,1.2,0.4,1.9,0.4c0.5,0,1-0.1,1.5-0.3l0.4-0.1
			c0.6,0.5,1.3,1,2.2,1.7c-0.4,0.3-0.9,0.6-1.4,0.9l0.9,0.6c0.5-0.3,1-0.6,1.4-0.9c0.4,0.3,0.9,0.6,1.4,0.9l0.9-0.6
			c-0.5-0.3-1-0.6-1.4-0.9c0.9-0.6,1.6-1.1,2.2-1.7l0.4,0.1c0.5,0.2,1,0.3,1.5,0.3l0,0c0.6,0,1.3-0.1,1.9-0.4
			c1.1-0.5,1.9-1.3,2.4-2.4l0.2-0.5L32.2,44c-0.7-0.2-1.5-0.3-2.2-0.2c0.3-0.3,0.5-0.6,0.7-0.9l0.5,0.1c0.2,0,0.4,0,0.6,0
			c0,0,0,0,0,0c1,0,1.9-0.3,2.7-0.9c0.9-0.7,1.6-1.7,1.8-2.8l0.1-0.5l-0.5-0.1c-0.2,0-0.4,0-0.6,0c-0.6,0-1.1,0.1-1.6,0.3
			c0.2-0.3,0.4-0.6,0.5-1l0.5,0c1.2-0.1,2.2-0.6,3-1.5c0.8-0.9,1.2-2,1.2-3.2l0-0.5l-0.5,0c-0.7,0.1-1.5,0.3-2.1,0.7
			c0.1-0.3,0.2-0.7,0.3-1.1L36.8,32.4L36.8,32.4z"/>
		<path class="st0" d="M37,42.6c-1,1.4-2.1,2.8-3.5,4.1c-4.2,3.8-8.9,6-10.2,6.5c-1.3-0.6-6-2.7-10.2-6.5c-1.4-1.3-2.5-2.6-3.5-4.1
			c-4.7-6.9-5.4-15-5.4-21.3l0,0l19-1.1l19,1.1C42.3,27.6,41.7,35.6,37,42.6L37,42.6z M5.3,5.1c3.5-0.4,11.5-1.2,18-1.2
			c6.5,0,14.5,0.8,18,1.2l1,13.9h-19h-19L5.3,5.1L5.3,5.1z M44.3,3.5l-0.8-0.1C43.3,3.4,32.1,2,23.3,2c0,0,0,0,0,0c0,0,0,0,0,0
			c-8.7,0-20,1.4-20.1,1.4L2.4,3.5v15.5h0v2.2c0,6.5,0.6,15,5.7,22.4c1,1.5,2.2,2.9,3.6,4.3l0,0c0,0,0,0,0,0c2.7,2.6,6.4,5.1,11.6,8
			v0c0,0,0,0,0,0c0,0,0,0,0,0v0c5.2-2.9,8.8-5.4,11.6-8c0,0,0,0,0,0v0c1.4-1.4,2.6-2.8,3.6-4.3c5.1-7.4,5.7-15.9,5.7-22.4v-0.3l0,0
			V3.5L44.3,3.5z"/>
	</g>
	<g>
		<path class="st0" d="M74.3,19.1l-1.9,0.1l-0.1-0.7l1-0.2v-5.7c0-1-0.5-1.5-1.3-1.5c-0.6,0-1.4,0.4-2.1,0.9l-0.6,0.4v5.9l1.1,0.2
			l-0.1,0.7l-1.9-0.1l-2.1,0.1l-0.1-0.7l1.2-0.2V6l-0.7,0.1l-4.1-0.1v12.1l2.3,0.3l-0.1,0.7l-3.2-0.1l-3.4,0.1l-0.1-0.7l2.4-0.3V6.1
			l-3,0.1l-0.9,2.5h-0.8V5.1l5.7,0l4.9,0l2.1-0.2h0.7v6.5l2.9-1.9c2.6,0,3,1,3,3.5v5.3l1.5,0.2l-0.1,0.7L74.3,19.1z"/>
		<path class="st0" d="M79.5,14c0,2.3,1.2,3.9,3.3,3.9c0.8,0,1.8-0.4,2.5-0.8l0.3,0.8c-1,0.7-2.2,1.2-3.5,1.6
			c-2.4,0-4.6-1.7-4.6-4.9c0-3,1.8-4.5,4.5-5.1c2.6,0,3.5,1.7,3.5,3.8V14H79.5z M83.5,13c0-1.5-0.3-2.6-1.8-2.6
			c-1.2,0-2,1.1-2.2,2.8L83.5,13z"/>
		<path class="st0" d="M99.4,5.8l0.1-0.7l2.6,0.1l2.3-0.1l0.1,0.7l-1.7,0.3v8.2c0,2.6-1.1,4.3-5,5.3c-3.9,0-5.3-2.1-5.3-5.3V6.1
			l-1.8-0.3l0.1-0.7l2.8,0.1l2.7-0.1l0.1,0.7l-1.7,0.3v8.4c0,2.5,1.1,3.9,3.3,3.9c2.1,0,3.2-1.4,3.2-4V6.1L99.4,5.8z"/>
		<path class="st0" d="M107.2,19.1l-2.3,0.1l-0.1-0.7l1.4-0.2v-7.3l-1.4,0.1l-0.1-0.7l2.4-0.6l0.9-0.1l0.1,1.7l3-1.9
			c2.6,0,3,0.9,3,3.3v5.6l1.5,0.2l-0.1,0.7l-2.3-0.1l-1.9,0.1l-0.1-0.7l1-0.2v-5.7c0-1-0.5-1.5-1.3-1.5c-0.7,0-1.4,0.4-2.1,0.9
			l-0.6,0.4v5.9l1.1,0.2l-0.1,0.7L107.2,19.1z"/>
		<path class="st0" d="M118.7,19.1l-2.3,0.1l-0.1-0.7l1.4-0.2v-7.3l-1.4,0.1l-0.1-0.7l2.4-0.6l1-0.1v8.6l1.5,0.2l-0.1,0.7
			L118.7,19.1z M117.7,5.3l1.4-0.1l0.6,0.1l0.1,1.1l-0.2,1l-1.4,0.1l-0.5-0.1l-0.1-1.1L117.7,5.3z"/>
		<path class="st0" d="M126.7,17.8l2.4-7.2l-0.9-0.2l0.1-0.7l1.8,0.1l1.7-0.1l0.1,0.7l-1.3,0.2l-3.3,8.2l-1.5,0.6l-3.5-8.8l-1.2-0.2
			l0.1-0.7l2.3,0.1l2.1-0.1l0.1,0.7l-1.3,0.2l2.2,5.9L126.7,17.8z"/>
		<path class="st0" d="M133.8,14c0,2.3,1.2,3.9,3.3,3.9c0.8,0,1.8-0.4,2.5-0.8l0.3,0.8c-1,0.7-2.2,1.2-3.5,1.6
			c-2.4,0-4.6-1.7-4.6-4.9c0-3,1.8-4.5,4.5-5.1c2.6,0,3.5,1.7,3.5,3.8V14H133.8z M137.8,13c0-1.5-0.3-2.6-1.8-2.6
			c-1.2,0-2,1.1-2.2,2.8L137.8,13z"/>
		<path class="st0" d="M144.4,12.3l2.3-2.8h1.6v2h-1.5c-0.5,0.1-1.4,0.8-1.9,1.4l-0.4,0.5v4.8l2.1,0.2l-0.1,0.8l-2.9-0.1l-2.2,0.1
			l-0.1-0.7l1.4-0.2v-7.3l-1.4,0.1l-0.1-0.7l2.4-0.6l0.8-0.1L144.4,12.3z"/>
		<path class="st0" d="M154.6,10.8c-0.2-0.1-0.8-0.4-1.5-0.4c-0.8,0-1.5,0.4-1.5,1.2c0,0.6,0.5,1,1.4,1.5l1.5,0.8
			c1.3,0.7,1.9,1.4,1.9,2.6c0,1.8-1.5,2.5-3.8,3c-1.2,0-2.5-0.6-3-0.9l-0.4-2.3h1.3l0.7,1.7c0.4,0.3,1,0.5,1.6,0.5
			c1.1,0,1.6-0.7,1.6-1.5c0-0.8-0.4-1.1-1.5-1.7l-1.6-0.8c-0.9-0.4-1.7-1.2-1.7-2.3c0-1.4,1.3-2.2,3.6-2.7c1.1,0,2.2,0.5,2.8,0.9v2
			H155L154.6,10.8z"/>
		<path class="st0" d="M160.1,19.1l-2.3,0.1l-0.1-0.7l1.4-0.2v-7.3l-1.4,0.1l-0.1-0.7l2.4-0.6l1-0.1v8.6l1.5,0.2l-0.1,0.7
			L160.1,19.1z M159.1,5.3l1.4-0.1l0.6,0.1l0.1,1.1l-0.2,1l-1.4,0.1L159,7.4l-0.1-1.1L159.1,5.3z"/>
		<path class="st0" d="M170,23.8v-2h1.7l2-3l-0.8,0.2l-3.4-8.4h-3v6.1c0,0.6,0.2,1.2,1.1,1.2c0.6,0,1.2-0.3,1.8-0.6l0.3,0.7
			l-2.5,1.4c-2.2,0-2.5-0.8-2.5-2.6v-6h-1.9v-0.3l0.7-0.7h1.3V8.5l1.3-1.3h0.5v2.5h6.3l0.1,0.7l-1.3,0.2l2.2,5.9l0.2,1.4l2.5-7.2
			l-0.9-0.2l0.1-0.7l1.8,0.1l1.7-0.1l0.1,0.7l-1.3,0.2l-3.2,8.2l-2.2,5H170z"/>
		<path class="st0" d="M192.3,14.2c0,3-1.8,4.7-4.9,5.2c-2.7,0-4.5-2.1-4.5-4.8c0-3,1.8-4.7,4.9-5.2
			C190.5,9.4,192.3,11.5,192.3,14.2z M187.9,18.4c1.6,0,2.4-1.6,2.4-3.8c0-2.5-1.2-4.2-3-4.2c-1.6,0-2.4,1.6-2.4,3.8
			C184.9,16.5,186.1,18.4,187.9,18.4z"/>
		<path class="st0" d="M196.8,9.9h2.5v0.9h-2.5v7.4l2.3,0.1l-0.1,0.8l-3.1-0.1l-2.3,0.1l-0.1-0.7l1.4-0.2v-7.4h-1.8v-0.3l0.6-0.7
			h1.2V9.6c0-1.2,0.4-2,1.1-2.8l1.7-1.9h2.5v1.6h-2.6l-0.4,0.5c-0.3,0.4-0.4,1-0.4,2.3V9.9z"/>
		<path class="st0" d="M214.6,19.1l-3.2-0.1l-3.4,0.1l-0.1-0.7l2.4-0.3V6.1l-3,0l-0.9,2.5h-0.8V5.1l5.7,0.1l5.8-0.1v3.5h-0.8
			l-0.9-2.5l-3,0v12.1l2.3,0.3L214.6,19.1z"/>
		<path class="st0" d="M218.2,14c0,2.3,1.2,3.9,3.3,3.9c0.8,0,1.8-0.4,2.5-0.8l0.3,0.8c-1,0.7-2.2,1.2-3.5,1.6
			c-2.4,0-4.6-1.7-4.6-4.9c0-3,1.8-4.5,4.5-5.1c2.6,0,3.5,1.7,3.5,3.8V14H218.2z M222.2,13c0-1.5-0.3-2.6-1.8-2.6
			c-1.2,0-2,1.1-2.2,2.8L222.2,13z"/>
		<path class="st0" d="M228.8,18.4l-0.1,0.7l-1.6-0.1l-2.1,0.1l-0.1-0.7l1.4-0.2l3-3.6l-2.9-4l-1.2-0.2l0.1-0.7l2.3,0.1l1.9-0.1
			l0.1,0.7l-0.8,0.2l1.5,2.2l0.2,0.5l1.9-2.7l-1-0.2l0.1-0.7l1.6,0.1l2.1-0.1l0.1,0.7l-1.4,0.2l-2.6,3.2l3.1,4.4l1.2,0.2l-0.1,0.7
			l-2.3-0.1l-1.9,0.1l-0.1-0.7l0.8-0.2l-1.8-2.6l-0.2-0.5l-2.1,3L228.8,18.4z"/>
		<path class="st0" d="M240.2,9.4c2.5,0,3.2,0.6,3.2,3.2v3.9c0,0.9,0.1,1.2,0.3,1.5h1l0.1,0.7l-2.6,0.5l-0.6-1.5l-2.4,1.7
			c-1.7,0-2.9-1-2.9-2.6c0-0.7,0.3-1.2,0.7-1.8l4.5-1.5v-1c0-1.2-0.1-1.9-1.2-1.9c-0.5,0-1.2,0.2-1.6,0.4l-0.3,1.6h-1.7V11
			L240.2,9.4z M241.4,14.3l-2.9,1.2c-0.3,0.3-0.4,0.7-0.4,1.1c0,1,0.6,1.4,1.2,1.4c0.6,0,1-0.3,1.3-0.5l0.8-0.6V14.3z"/>
		<path class="st0" d="M251,10.8c-0.2-0.1-0.8-0.4-1.5-0.4c-0.8,0-1.5,0.4-1.5,1.2c0,0.6,0.5,1,1.4,1.5l1.5,0.8
			c1.3,0.7,1.9,1.4,1.9,2.6c0,1.8-1.5,2.5-3.8,3c-1.2,0-2.5-0.6-3-0.9l-0.4-2.3h1.3l0.7,1.7c0.4,0.3,1,0.5,1.6,0.5
			c1.1,0,1.6-0.7,1.6-1.5c0-0.8-0.4-1.1-1.5-1.7l-1.6-0.8c-0.9-0.4-1.7-1.2-1.7-2.3c0-1.4,1.3-2.2,3.6-2.7c1.1,0,2.2,0.5,2.8,0.9v2
			h-1.1L251,10.8z"/>
		<path class="st0" d="M262.8,9.4c2.5,0,3.2,0.6,3.2,3.2v3.9c0,0.9,0.1,1.2,0.3,1.5h1l0.1,0.7l-2.6,0.5l-0.6-1.5l-2.4,1.7
			c-1.7,0-2.9-1-2.9-2.6c0-0.7,0.3-1.2,0.7-1.8l4.5-1.5v-1c0-1.2-0.1-1.9-1.2-1.9c-0.5,0-1.2,0.2-1.6,0.4l-0.3,1.6h-1.7V11
			L262.8,9.4z M264.1,14.3l-2.9,1.2c-0.3,0.3-0.4,0.7-0.4,1.1c0,1,0.6,1.4,1.2,1.4c0.6,0,1-0.3,1.3-0.5l0.8-0.6V14.3z"/>
		<path class="st0" d="M267.3,10.9v-0.3l0.7-0.7h1.3V8.5l1.3-1.3h0.5V10h3v0.9h-3v5.9c0,0.6,0.2,1.2,1.1,1.2c0.6,0,1-0.2,1.6-0.5
			l0.3,0.7l-2.3,1.3c-2.2,0-2.5-0.8-2.5-2.6v-6H267.3z"/>
		<path class="st0" d="M282.6,14.4l-1.3,3.7l1.7,0.3l-0.1,0.7l-2.4-0.1l-2.1,0.1l-0.1-0.7l1.6-0.2l5-13l1.2-0.3l5.2,13.3l1.6,0.2
			l-0.1,0.7l-2.8-0.1l-2.6,0.1l-0.1-0.7l1.7-0.3l-1.4-3.7H282.6z M285.2,8.2l-0.1-1.1l-2.2,6.4h4.3L285.2,8.2z"/>
		<path class="st0" d="M301.3,16.5c0,0.9,0.1,1.2,0.2,1.5h1l0.1,0.7l-2.6,0.5l-0.6-1.6l-2.9,1.8c-2.6,0-3.1-0.9-3.1-3.3v-5.2
			l-1.4,0.1l-0.1-0.8l2.4-0.5l1-0.1v6.7c0,1,0.4,1.5,1.4,1.5c0.6,0,1.4-0.5,2.2-1l0.4-0.3v-5.6l-1.2,0.1l-0.1-0.8l2.2-0.5l1-0.1
			V16.5z"/>
		<path class="st0" d="M308.9,10.8c-0.2-0.1-0.8-0.4-1.5-0.4c-0.8,0-1.5,0.4-1.5,1.2c0,0.6,0.5,1,1.4,1.5l1.5,0.8
			c1.3,0.7,1.9,1.4,1.9,2.6c0,1.8-1.5,2.5-3.8,3c-1.2,0-2.5-0.6-3-0.9l-0.4-2.3h1.3l0.7,1.7c0.4,0.3,1,0.5,1.6,0.5
			c1.1,0,1.6-0.7,1.6-1.5c0-0.8-0.4-1.1-1.5-1.7l-1.6-0.8c-0.9-0.4-1.7-1.2-1.7-2.3c0-1.4,1.3-2.2,3.6-2.7c1.1,0,2.2,0.5,2.8,0.9v2
			h-1.1L308.9,10.8z"/>
		<path class="st0" d="M311.3,10.9v-0.3l0.7-0.7h1.3V8.5l1.3-1.3h0.5V10h3v0.9h-3v5.9c0,0.6,0.2,1.2,1.1,1.2c0.6,0,1-0.2,1.6-0.5
			l0.3,0.7l-2.3,1.3c-2.2,0-2.5-0.8-2.5-2.6v-6H311.3z"/>
		<path class="st0" d="M321.7,19.1l-2.3,0.1l-0.1-0.7l1.4-0.2v-7.3l-1.4,0.1l-0.1-0.7l2.4-0.6l1-0.1v8.6l1.5,0.2l-0.1,0.7
			L321.7,19.1z M320.7,5.3l1.4-0.1l0.6,0.1l0.1,1.1l-0.2,1l-1.4,0.1l-0.5-0.1l-0.1-1.1L320.7,5.3z"/>
		<path class="st0" d="M327.4,19.1l-2.3,0.1l-0.1-0.7l1.4-0.2v-7.3l-1.4,0.1l-0.1-0.7l2.4-0.6l0.9-0.1l0.1,1.7l3-1.9
			c2.6,0,3,0.9,3,3.3v5.6l1.5,0.2l-0.1,0.7l-2.3-0.1l-1.9,0.1l-0.1-0.7l1-0.2v-5.7c0-1-0.5-1.5-1.3-1.5c-0.7,0-1.4,0.4-2.1,0.9
			l-0.6,0.4v5.9l1.1,0.2l-0.1,0.7L327.4,19.1z"/>
	</g>
</g>
<g>
	<path class="st1" d="M74.1,27.7l0.3,5.4h-1l-1.7-3.9l-7.9-0.1v8l4.2-0.1l1.2-3.1h1l-0.3,3.7l0.3,4h-1l-1.2-3.1l-4.2-0.1v9l8.2-0.1
		l2-4.1h1.1l-1.1,5.5l-11.9-0.1L58,48.8l-0.2-1l2.7-0.4V29.2l-2.7-0.4l0.2-1.1l4.1,0.1L74.1,27.7z"/>
	<path class="st1" d="M80.2,48.7l-3.4,0.1l-0.2-1l2.1-0.3V29.4l-2.1,0.1l-0.2-1l3.6-0.9l1.5-0.1v20.1l2.2,0.3l-0.1,1L80.2,48.7z"/>
	<path class="st1" d="M88.1,41.1c0,3.4,1.8,5.9,5,5.9c1.2,0,2.6-0.6,3.8-1.3l0.5,1.1c-1.4,1-3.3,1.8-5.2,2.4c-3.6,0-6.9-2.6-6.9-7.3
		c0-4.4,2.7-6.8,6.8-7.7c4,0,5.3,2.5,5.3,5.6v1.3H88.1z M94.1,39.6c0-2.3-0.5-3.9-2.8-3.9c-1.8,0-3,1.7-3.2,4.2L94.1,39.6z"/>
	<path class="st1" d="M107.7,36.3c-0.5-0.4-0.9-0.5-1.7-0.5c-2,0-3.6,2.3-3.6,5.5c0,3.2,1.7,5.6,4.7,5.6c1.1,0,2.3-0.6,3.4-1.3
		l0.5,1.1c-1.4,1-2.9,1.7-4.9,2.4c-3.8,0-6.7-2.5-6.7-7.1c0-4.7,3.4-7,7.1-7.9c1.4,0,3.2,0.7,4.1,1.5v3h-2.2L107.7,36.3z"/>
	<path class="st1" d="M111.8,36.4v-0.5l1-1h2v-2l2-1.9h0.8V35h4.5v1.3h-4.5v8.8c0,0.9,0.3,1.8,1.6,1.8c0.9,0,1.5-0.3,2.4-0.7l0.5,1
		l-3.5,2c-3.4,0-3.8-1.2-3.8-3.9v-8.9H111.8z"/>
	<path class="st1" d="M128.1,38.6l3.4-4.2h2.4v3h-2.2c-0.7,0.1-2,1.1-2.8,2.1l-0.6,0.7v7.1l3.1,0.3l-0.1,1.1l-4.4-0.1l-3.4,0.1
		l-0.2-1l2.1-0.3V36.5l-2.1,0.2l-0.1-1.1l3.6-0.9l1.2-0.1L128.1,38.6z"/>
	<path class="st1" d="M139,48.7l-3.5,0.1l-0.1-1l2.1-0.3V36.5l-2.1,0.2l-0.2-1.1l3.6-0.9l1.5-0.1v12.9l2.2,0.3l-0.2,1L139,48.7z
		 M137.5,28.1l2.2-0.1l0.8,0.1l0.2,1.7l-0.3,1.4l-2.1,0.2l-0.8-0.2l-0.2-1.7L137.5,28.1z"/>
	<path class="st1" d="M152.3,36.3c-0.5-0.4-0.9-0.5-1.7-0.5c-2,0-3.6,2.3-3.6,5.5c0,3.2,1.7,5.6,4.7,5.6c1.1,0,2.3-0.6,3.4-1.3
		l0.5,1.1c-1.4,1-2.9,1.7-4.9,2.4c-3.8,0-6.7-2.5-6.7-7.1c0-4.7,3.5-7,7.1-7.9c1.4,0,3.2,0.7,4.1,1.5v3H153L152.3,36.3z"/>
	<path class="st1" d="M163.1,34.2c3.8,0,4.7,1,4.7,4.8v5.9c0,1.3,0.2,1.8,0.5,2.2h1.5l0.1,1l-3.9,0.8l-0.9-2.3l-3.6,2.6
		c-2.6,0-4.4-1.4-4.4-3.8c0-1.1,0.4-1.9,1-2.8l6.8-2.2v-1.5c0-1.8-0.1-2.9-1.8-2.9c-0.8,0-1.8,0.3-2.5,0.5l-0.5,2.4h-2.6v-2.3
		L163.1,34.2z M165,41.6l-4.4,1.8c-0.4,0.5-0.6,1.1-0.6,1.7c0,1.5,0.9,2.1,1.7,2.1c0.8,0,1.6-0.5,2-0.8l1.3-0.9V41.6z"/>
	<path class="st1" d="M174.8,48.7l-3.5,0.1l-0.1-1l2.1-0.3V29.4l-2.1,0.1l-0.2-1l3.6-0.9l1.5-0.1v20.1l2.2,0.3l-0.2,1L174.8,48.7z"
		/>
	<path class="st1" d="M192.8,34.2c3.8,0,4.7,1,4.7,4.8v5.9c0,1.3,0.2,1.8,0.5,2.2h1.5l0.1,1l-3.9,0.8l-0.9-2.3l-3.6,2.6
		c-2.6,0-4.4-1.4-4.4-3.8c0-1.1,0.4-1.9,1-2.8l6.8-2.2v-1.5c0-1.8-0.2-2.9-1.8-2.9c-0.8,0-1.8,0.3-2.5,0.5l-0.5,2.4h-2.6v-2.3
		L192.8,34.2z M194.7,41.6l-4.3,1.8c-0.5,0.5-0.6,1.1-0.6,1.7c0,1.5,0.9,2.1,1.7,2.1c0.8,0,1.6-0.5,2-0.8l1.3-0.9V41.6z"/>
	<path class="st1" d="M204.5,48.7l-3.5,0.1l-0.2-1l2.1-0.3V36.5l-2.1,0.2l-0.1-1.1l3.6-0.9l1.3-0.1l0.2,2.5l4.4-2.9
		c3.8,0,4.5,1.3,4.5,4.9v8.3l2.3,0.3l-0.2,1l-3.4-0.1l-2.9,0.1l-0.1-1l1.5-0.3v-8.6c0-1.6-0.7-2.2-2-2.2c-1.1,0-2.1,0.7-3.1,1.4
		l-0.9,0.6v8.9l1.7,0.3l-0.2,1L204.5,48.7z"/>
	<path class="st1" d="M230.7,44.9c0,1.2,0.2,1.7,0.5,2.2h1.7l0.1,1.1l-4,0.8l-0.9-2.3l-3.9,2.6c-3.8,0-6.2-2.9-6.2-7
		c0-4.9,3-7.4,7.3-8c0.6,0,1.9,0.5,2.6,0.8v-5.7l-2.1,0.1l-0.1-1l3.6-0.9l1.5-0.1V44.9z M226.9,45.6l0.9-0.7v-7.9
		c-0.7-0.8-1.7-1.2-3-1.2c-2.4,0-3.9,2.2-3.9,5.7c0,3.3,1.3,5.4,3.1,5.4C224.9,46.8,225.9,46.4,226.9,45.6z"/>
	<path class="st1" d="M260.9,42.6l-0.8,4.3c-1.6,0.8-4.8,2-7.3,2.3c-5.6,0-10.8-3.8-10.8-10.8c0-7,4.6-10.4,11.3-11.3
		c3.1,0,5.9,1.4,7.2,2.3v4h-1.6l-1-2.8c-0.8-0.9-2.5-2-5-2c-4.4,0-7.5,3.1-7.5,9c0,4.9,3,9.8,8.2,9.8c1.8,0,3.1-1,3.9-1.7l1.6-3.3
		H260.9z"/>
	<path class="st1" d="M277,41.4c0,4.5-2.7,7-7.4,7.8c-4,0-6.7-3.1-6.7-7.2c0-4.5,2.7-7,7.4-7.8C274.3,34.2,277,37.3,277,41.4z
		 M270.4,47.7c2.4,0,3.6-2.5,3.6-5.7c0-3.8-1.8-6.4-4.4-6.4c-2.4,0-3.6,2.5-3.6,5.7C266,44.8,267.7,47.7,270.4,47.7z"/>
	<path class="st1" d="M299.4,48.7l-2.8,0.1l-0.2-1l1.5-0.3v-8.6c0-1.6-0.7-2.2-1.7-2.2c-0.9,0-2,0.6-3.1,1.4l-0.9,0.6v8.8l1.4,0.3
		l-0.1,1l-2.6-0.1l-2.7,0.1l-0.2-1l1.3-0.3v-8.6c0-1.6-0.7-2.2-1.7-2.2c-0.9,0-2,0.6-3.1,1.4l-0.9,0.6v8.8l1.5,0.3l-0.2,1l-2.7-0.1
		l-3.5,0.1l-0.2-1l2.1-0.3V36.5l-2.1,0.2l-0.1-1.1l3.6-0.9l1.3-0.1l0.2,2.5l4.1-2.9c2.9,0,4,0.9,4.3,2.9l4.2-2.9
		c3.8,0,4.5,1.4,4.5,5.2v8l2.2,0.3l-0.2,1L299.4,48.7z"/>
	<path class="st1" d="M309,48.6v5.8l3.1,0.3l-0.1,1l-4.4-0.1l-3.5,0.1l-0.1-1l2.1-0.3V36.5l-2.1,0.2l-0.1-1l3.6-0.9l1.3-0.1l0.2,2.5
		l3.8-2.9c3.9,0,6.1,2.6,6.1,7c0,5.1-3.1,7.4-7.5,8C310.6,49.2,309.7,49,309,48.6z M312.8,36.5c-0.8,0-1.8,0.5-2.9,1.4l-0.9,0.7v7.5
		c0.7,1,1.9,1.6,3.3,1.6c2.2,0,3.6-2.1,3.6-5.6C315.9,38.6,314.6,36.5,312.8,36.5z"/>
	<path class="st1" d="M334,44.9c0,1.3,0.2,1.8,0.4,2.2h1.5l0.1,1l-3.9,0.8l-0.8-2.4l-4.3,2.7c-4,0-4.6-1.4-4.6-4.9v-7.8l-2.1,0.1
		l-0.2-1.2l3.6-0.8l1.5-0.1v10c0,1.6,0.7,2.2,2.1,2.2c0.9,0,2.1-0.8,3.3-1.5l0.6-0.4v-8.4l-1.8,0.1l-0.1-1.2l3.3-0.8l1.5-0.1V44.9z"
		/>
	<path class="st1" d="M336.8,36.4v-0.5l1-1h2v-2l2-1.9h0.8V35h4.5v1.3h-4.5v8.8c0,0.9,0.3,1.8,1.6,1.8c0.9,0,1.5-0.3,2.4-0.7l0.5,1
		l-3.5,2c-3.4,0-3.8-1.2-3.8-3.9v-8.9H336.8z"/>
	<path class="st1" d="M350.4,41.1c0,3.4,1.8,5.9,5,5.9c1.2,0,2.6-0.6,3.8-1.3l0.5,1.1c-1.4,1-3.3,1.8-5.2,2.4
		c-3.6,0-6.9-2.6-6.9-7.3c0-4.4,2.7-6.8,6.8-7.7c4,0,5.3,2.5,5.3,5.6v1.3H350.4z M356.4,39.6c0-2.3-0.5-3.9-2.8-3.9
		c-1.8,0-3,1.7-3.2,4.2L356.4,39.6z"/>
	<path class="st1" d="M365.9,38.6l3.4-4.2h2.4v3h-2.2c-0.7,0.1-2,1.1-2.8,2.1l-0.6,0.7v7.1l3.1,0.3l-0.2,1.1l-4.3-0.1l-3.4,0.1
		l-0.2-1l2.1-0.3V36.5l-2.1,0.2l-0.1-1.1l3.6-0.9l1.2-0.1L365.9,38.6z"/>
	<path class="st1" d="M74.1,59.2l0.3,5.4h-1l-1.7-3.9l-7.9-0.1v8l4.2-0.1l1.2-3.1h1l-0.3,3.7l0.3,4h-1L67.9,70l-4.2-0.1v9l8.2-0.1
		l2-4.1h1.1l-1.1,5.5l-11.9-0.1L58,80.3l-0.2-1l2.7-0.4V60.7l-2.7-0.4l0.2-1.1l4.1,0.1L74.1,59.2z"/>
	<path class="st1" d="M80.1,80.2l-3.4,0.1l-0.2-1l2.1-0.3V68l-2.1,0.2l-0.2-1.1l3.6-0.9l1.3-0.1l0.2,2.5l4.4-2.9
		c3.8,0,4.5,1.3,4.5,4.9v8.3l2.3,0.3l-0.2,1L89,80.2l-2.9,0.1l-0.2-1l1.5-0.3v-8.6c0-1.6-0.7-2.2-2-2.2c-1,0-2.1,0.7-3.1,1.4
		l-0.9,0.6v8.9l1.6,0.3l-0.2,1L80.1,80.2z"/>
	<path class="st1" d="M104.2,67.5l1.6-1.8h1.8v2.4h-1.8l-1,0.5c0.2,0.5,0.3,0.9,0.3,1.4c0,2.5-1.8,4.4-5.8,5.4c-0.4,0-0.8,0-1.2-0.1
		l-1.6,1.9c0,0.6,0.4,1.1,1.2,1.1h5.5c2.7,0,3.9,1.3,3.9,3.1c0,2.5-3.1,4.9-7.7,6.2c-4.3,0-6.5-1.4-6.5-4.1V83l3.3-2.5
		c-2.1-0.8-2.2-1.7-2.2-3.1v-0.2l3-2.1c-1.9-0.7-3.1-2.1-3.1-4c0-2.6,1.7-4.4,5.8-5.4C101.6,65.7,103.3,66.4,104.2,67.5z M97.3,80.7
		c-1.5,1.7-1.7,2.2-1.7,2.6c0,1.4,1.6,2.5,4.1,2.5s4.6-1.6,4.6-3.6c0-1.1-0.8-1.5-2.8-1.5H97.3z M99.2,67.1c-1.6,0-2.5,1.3-2.5,3.2
		c0,1.4,0.6,3.8,3.1,3.8c1.6,0,2.5-1.1,2.5-2.8C102.3,69.6,101.7,67.1,99.2,67.1z"/>
	<path class="st1" d="M112.4,80.2l-3.5,0.1l-0.1-1l2.1-0.3V68l-2.1,0.2l-0.2-1.1l3.6-0.9l1.5-0.1v12.9l2.2,0.3l-0.2,1L112.4,80.2z
		 M110.9,59.6l2.2-0.1l0.8,0.1l0.2,1.7l-0.3,1.4l-2.1,0.2l-0.8-0.2l-0.2-1.7L110.9,59.6z"/>
	<path class="st1" d="M121.3,80.2l-3.4,0.1l-0.2-1l2.1-0.3V68l-2.1,0.2l-0.2-1.1l3.6-0.9l1.3-0.1l0.2,2.5l4.4-2.9
		c3.8,0,4.5,1.3,4.5,4.9v8.3l2.3,0.3l-0.2,1l-3.5-0.1l-2.9,0.1l-0.2-1l1.5-0.3v-8.6c0-1.6-0.7-2.2-2-2.2c-1,0-2.1,0.7-3.1,1.4
		l-0.9,0.6v8.9l1.6,0.3l-0.2,1L121.3,80.2z"/>
	<path class="st1" d="M137.7,72.6c0,3.4,1.8,5.9,5,5.9c1.2,0,2.6-0.6,3.7-1.3l0.5,1.1c-1.4,1-3.3,1.8-5.2,2.4
		c-3.6,0-6.9-2.6-6.9-7.3c0-4.4,2.7-6.8,6.8-7.7c4,0,5.3,2.5,5.3,5.6v1.3H137.7z M143.7,71.1c0-2.3-0.4-3.9-2.8-3.9
		c-1.8,0-3,1.7-3.2,4.2L143.7,71.1z"/>
	<path class="st1" d="M151.8,72.6c0,3.4,1.8,5.9,5,5.9c1.2,0,2.6-0.6,3.7-1.3l0.5,1.1c-1.4,1-3.3,1.8-5.2,2.4
		c-3.6,0-6.9-2.6-6.9-7.3c0-4.4,2.7-6.8,6.8-7.7c4,0,5.3,2.5,5.3,5.6v1.3H151.8z M157.8,71.1c0-2.3-0.4-3.9-2.8-3.9
		c-1.8,0-3,1.7-3.2,4.2L157.8,71.1z"/>
	<path class="st1" d="M167.3,70.1l3.4-4.2h2.4v3h-2.2c-0.7,0.1-2,1.1-2.8,2.1l-0.6,0.7v7.1l3.1,0.3l-0.1,1.1l-4.3-0.1l-3.4,0.1
		l-0.2-1l2.1-0.3V68l-2.1,0.2l-0.1-1.1l3.6-0.9l1.2-0.1L167.3,70.1z"/>
	<path class="st1" d="M178.3,80.2l-3.5,0.1l-0.2-1l2.1-0.3V68l-2.1,0.2l-0.1-1.1l3.6-0.9l1.5-0.1v12.9l2.2,0.3l-0.2,1L178.3,80.2z
		 M176.8,59.6l2.2-0.1l0.8,0.1l0.1,1.7l-0.3,1.4l-2.1,0.2l-0.8-0.2l-0.2-1.7L176.8,59.6z"/>
	<path class="st1" d="M187.1,80.2l-3.5,0.1l-0.1-1l2.1-0.3V68l-2.1,0.2l-0.2-1.1l3.6-0.9l1.3-0.1l0.2,2.5l4.4-2.9
		c3.8,0,4.5,1.3,4.5,4.9v8.3l2.3,0.3l-0.1,1l-3.5-0.1l-2.9,0.1l-0.2-1l1.5-0.3v-8.6c0-1.6-0.7-2.2-2-2.2c-1,0-2.1,0.7-3.1,1.4
		l-0.9,0.6v8.9l1.7,0.3l-0.2,1L187.1,80.2z"/>
	<path class="st1" d="M211.3,67.5l1.6-1.8h1.8v2.4h-1.8l-1,0.5c0.2,0.5,0.3,0.9,0.3,1.4c0,2.5-1.8,4.4-5.8,5.4c-0.4,0-0.8,0-1.2-0.1
		l-1.6,1.9c0,0.6,0.5,1.1,1.2,1.1h5.5c2.7,0,3.9,1.3,3.9,3.1c0,2.5-3.1,4.9-7.6,6.2c-4.3,0-6.5-1.4-6.5-4.1V83l3.3-2.5
		c-2.1-0.8-2.2-1.7-2.2-3.1v-0.2l3-2.1c-1.9-0.7-3.1-2.1-3.1-4c0-2.6,1.7-4.4,5.8-5.4C208.7,65.7,210.3,66.4,211.3,67.5z
		 M204.3,80.7c-1.5,1.7-1.6,2.2-1.6,2.6c0,1.4,1.6,2.5,4.1,2.5c2.5,0,4.6-1.6,4.6-3.6c0-1.1-0.8-1.5-2.8-1.5H204.3z M206.3,67.1
		c-1.6,0-2.6,1.3-2.6,3.2c0,1.4,0.6,3.8,3.1,3.8c1.6,0,2.6-1.1,2.6-2.8C209.3,69.6,208.7,67.1,206.3,67.1z"/>
	<path class="st1" d="M63.6,104.6c-3.4,0-5.6-2.4-5.6-6.2c0-3.1,1.3-6.6,5.6-8l1.7-0.6c2,0,3.5,0.9,4.2,1.5l-0.1,2.9h-1.1l-0.4-1.9
		c-0.6-0.6-1.7-1.1-3.6-1.4c-2.7,1.2-4.1,3.7-4.1,7.1c0,3.6,2,5.4,4.3,5.5c1-0.4,1.6-0.7,2.2-1.3l1.2-2.4h1.1l-0.8,3.4L63.6,104.6z"
		/>
	<path class="st1" d="M78.4,98.5c0,2.4-1.4,4.7-3.9,5.6l-1.2,0.5c-1.7,0-3.3-1.4-3.3-4c0-2.4,1.4-4.7,3.9-5.6l1.2-0.5
		C76.9,94.6,78.4,96,78.4,98.5z M72,100.3c0,2.2,1,3.1,2.1,3.3c1.8-0.6,2.4-3.1,2.4-4.8c0-2.2-1.1-3.1-2.2-3.3
		C72.5,96.1,72,98.6,72,100.3z"/>
	<path class="st1" d="M85.8,101.8l0.4,0.5c-0.6,0.5-1.6,1.2-2.6,1.8l-0.8,0.5c-1.8,0-3.3-1.4-3.3-3.9c0-2.5,1.5-4.6,4.1-5.7l1.1-0.4
		c0.5,0,1.6,0.4,2.2,0.7l-1,1.6c-0.7-0.5-1.6-1-2.2-1.2c-1.4,0.8-2.2,2.4-2.2,4.4c0,1.9,1,2.8,2.1,3
		C84.2,102.8,85.3,102.2,85.8,101.8z"/>
	<path class="st1" d="M87.8,91.6L87.6,91l3.5-1.1l0.5,0.5l-1.4,8.2l0.4-0.1l3.6-3.8h1.9l-0.4,1.9h-1.2c-0.7,0.2-1.2,0.5-1.9,1
		l-1.4,1.2l0.5,0.2l2.2,4.1l1.7-1.1l0.3,0.5l-2.8,2l-0.8-0.5l-2.3-4.9l-0.9,5.1h-1.7l2.3-13.2L87.8,91.6z"/>
	<path class="st1" d="M100.4,96.7l-0.6,2.2l2.7-4.1h1.6l-0.4,1.8h-0.9c-0.5,0.3-1.3,1.1-1.9,1.8l-0.8,1l-0.9,4.9h-1.7l1.5-8.3
		l-1.9,0.7L96.9,96l3.3-1.5l0.5,0.5L100.4,96.7z"/>
	<path class="st1" d="M110.2,101.8l0.4,0.5c-0.5,0.4-1.6,1.2-2.6,1.8l-0.8,0.5c-2,0-3.3-1.5-3.3-3.7c0-2.5,1.4-4.9,4-5.9l1.1-0.4
		c1.3,0.2,2.2,0.7,2.2,2.1c0,0.5-0.1,1-0.4,1.7l-5,1.6c0,0.2,0,0.4,0,0.5c0,1.8,1.1,2.6,2.1,2.6
		C108.5,102.8,109.5,102.3,110.2,101.8z M105.9,99.3l3.3-1.3c0.1-0.4,0.2-0.7,0.2-1.1c0-0.9-0.5-1.2-1.1-1.3
		C106.8,96.1,106.1,97.7,105.9,99.3z"/>
	<path class="st1" d="M112.4,91.7l-0.2-0.6l3.5-1.1l0.5,0.5l-2.2,12.6l1.7-1l0.3,0.5l-2.8,2l-1-0.6l2.3-12.8L112.4,91.7z"/>
	<path class="st1" d="M117.7,91.7l-0.2-0.6L121,90l0.5,0.5l-2.2,12.6l1.7-1l0.3,0.5l-2.8,2l-1-0.6l2.3-12.8L117.7,91.7z"/>
	<path class="st1" d="M136.5,93.8h-1.1l-0.1-1.8c-0.5-0.5-1.6-1.1-2.6-1.1c-1.5,0.5-2.1,1.2-2.1,2.2c0,1.2,0.7,1.8,1.6,2.5l1.8,1.4
		c0.9,0.7,1.9,1.6,1.9,3.4c0,1.6-1.1,2.9-2.8,3.5l-2,0.7c-1.9,0-3.4-0.6-4.3-1.3l0.5-2.8h1.3v1.7c0.5,0.6,1.9,1.5,3.1,1.5
		c1.5-0.4,2.2-1.4,2.2-2.6c0-1.4-0.6-2-1.6-2.7l-2-1.6c-1-0.7-1.6-1.6-1.6-3c0-1.5,1-2.6,3-3.3l1.8-0.7c1.8,0,3,0.5,3.7,1
		L136.5,93.8z"/>
	<path class="st1" d="M143.4,101.8l0.4,0.5c-0.6,0.5-1.6,1.2-2.6,1.8l-0.8,0.5c-1.8,0-3.3-1.4-3.3-3.9c0-2.5,1.5-4.6,4.1-5.7
		l1.1-0.4c0.5,0,1.6,0.4,2.2,0.7l-1,1.6c-0.7-0.5-1.6-1-2.2-1.2c-1.4,0.8-2.2,2.4-2.2,4.4c0,1.9,1,2.8,2.1,3
		C141.7,102.8,142.9,102.2,143.4,101.8z"/>
	<path class="st1" d="M146.8,104.3h-1.7l2.3-13.1l-1.9,0.5l-0.2-0.6l3.5-1.1l0.5,0.5l-1,5.7l-0.3,0.6l3.4-2.2c1.6,0,2.1,1.1,1.9,2.2
		l-1.1,6.3l1.7-1l0.3,0.5l-2.8,2l-1-0.6l1.1-6.4c0.1-0.8,0.1-1.3-0.6-1.3c-0.6,0-1.4,0.4-1.9,0.8l-1,0.7L146.8,104.3z"/>
	<path class="st1" d="M163,98.5c0,2.4-1.4,4.7-3.9,5.6l-1.2,0.5c-1.7,0-3.3-1.4-3.3-4c0-2.4,1.4-4.7,3.9-5.6l1.2-0.5
		C161.5,94.6,163,96,163,98.5z M156.6,100.3c0,2.2,1,3.1,2.1,3.3c1.8-0.6,2.4-3.1,2.4-4.8c0-2.2-1.1-3.1-2.2-3.3
		C157.1,96.1,156.6,98.6,156.6,100.3z"/>
	<path class="st1" d="M172.5,98.5c0,2.4-1.4,4.7-3.9,5.6l-1.2,0.5c-1.7,0-3.3-1.4-3.3-4c0-2.4,1.4-4.7,3.9-5.6l1.2-0.5
		C170.9,94.6,172.5,96,172.5,98.5z M166,100.3c0,2.2,1,3.1,2.1,3.3c1.8-0.6,2.4-3.1,2.4-4.8c0-2.2-1.1-3.1-2.2-3.3
		C166.6,96.1,166,98.6,166,100.3z"/>
	<path class="st1" d="M173.7,91.7l-0.2-0.6L177,90l0.5,0.5l-2.2,12.6l1.7-1l0.3,0.5l-2.8,2l-1-0.6l2.3-12.8L173.7,91.7z"/>
	<path class="st1" d="M191.6,98.5c0,2.4-1.4,4.7-3.9,5.6l-1.2,0.5c-1.7,0-3.3-1.4-3.3-4c0-2.4,1.4-4.7,3.9-5.6l1.2-0.5
		C190.1,94.6,191.6,96,191.6,98.5z M185.2,100.3c0,2.2,1,3.1,2.1,3.3c1.8-0.6,2.4-3.1,2.4-4.8c0-2.2-1.1-3.1-2.2-3.3
		C185.7,96.1,185.2,98.6,185.2,100.3z"/>
	<path class="st1" d="M192,107.3c0.4-0.5,0.7-1.2,0.8-1.7l1.7-9.6h-1.9l0.1-0.4l0.7-0.7h1.3l0.2-1.1c0.2-1.1,0.6-1.9,1.3-2.4
		l2.5-1.6h1.6l-0.3,1.6h-2.5c-0.5,0.4-0.8,1.2-0.9,1.7l-0.3,1.8h2.3l-0.2,1h-2.2l-1.5,8.9c-0.2,1-0.6,1.9-1.3,2.4l-2.5,1.6h-1.4
		l0.3-1.6H192z"/>
	<path class="st1" d="M215.9,90.2v3.4h-0.7l-0.9-2.4l-5-0.1l-0.8,5.3l2.8-0.1l1.2-2.1h0.6l-0.7,2.6l-0.2,2.6h-0.6l-0.5-2.1l-2.8-0.1
		l-1,6l5.4-0.1l1.5-2.7h0.8l-0.9,3.7l-7.9-0.1l-2.7,0.1v-0.7l1.8-0.3l1.9-12.1l-1.8-0.3l0.2-0.7l2.8,0.1L215.9,90.2z"/>
	<path class="st1" d="M223.3,97.5c0.1-0.8,0.1-1.3-0.6-1.3c-0.6,0-1.4,0.4-1.9,0.8l-1,0.7l-1.2,6.7h-1.7l1.5-8.3l-1.9,0.7l-0.2-0.6
		l3.3-1.5l0.6,0.6l-0.2,1l-0.3,0.6l3.4-2.2c1.6,0,2.1,1.1,1.9,2.2l-1.1,6.3l1.7-1l0.3,0.5l-2.8,2l-1-0.6L223.3,97.5z"/>
	<path class="st1" d="M226,109l0.3-1.6h3.7c0.6-0.4,1.3-1.4,1.5-2.6l0.3-2l0.3-0.9l-2.8,2.7c-1.4-0.3-2.7-1.2-2.7-3.8
		c0-2.4,1.1-4.5,3.5-5.6l1.3-0.6c0.8,0,2.3,0.4,3.4,0.9l-1.7,9.7c-0.2,0.9-1,1.6-2.2,2.5l-1.7,1.3H226z M229.7,103.1l2.3-1.8
		l0.9-4.8c-0.5-0.4-1.7-0.7-2.5-0.7c-1.2,0.9-1.9,2.8-1.9,4.7C228.4,101.9,229,102.7,229.7,103.1z"/>
	<path class="st1" d="M236.1,96.6l-0.2-0.6l3.3-1.5l0.6,0.6l-1.4,7.9l1.7-1l0.3,0.5l-2.8,2l-1-0.6l1.4-8L236.1,96.6z M238.9,90.5
		l0.6-0.1l1.1,0.1v1l-0.3,0.9l-0.5,0.1l-1.3-0.1l0.1-1L238.9,90.5z"/>
	<path class="st1" d="M248.2,97.5c0.1-0.8,0.1-1.3-0.6-1.3c-0.6,0-1.4,0.4-1.9,0.8l-1,0.7l-1.2,6.7h-1.7l1.5-8.3l-1.9,0.7l-0.2-0.6
		l3.3-1.5l0.6,0.6l-0.2,1l-0.3,0.6l3.4-2.2c1.6,0,2.1,1.1,1.9,2.2l-1.1,6.3l1.7-1l0.3,0.5l-2.8,2l-1-0.6L248.2,97.5z"/>
	<path class="st1" d="M257.7,101.8l0.4,0.5c-0.5,0.4-1.6,1.2-2.6,1.8l-0.8,0.5c-2,0-3.3-1.5-3.3-3.7c0-2.5,1.4-4.9,4-5.9l1.1-0.4
		c1.3,0.2,2.2,0.7,2.2,2.1c0,0.5-0.1,1-0.4,1.7l-5,1.6c0,0.2,0,0.4,0,0.5c0,1.8,1.1,2.6,2.1,2.6C256,102.8,257,102.3,257.7,101.8z
		 M253.4,99.3l3.3-1.3c0.1-0.4,0.2-0.7,0.2-1.1c0-0.9-0.5-1.2-1.1-1.3C254.3,96.1,253.6,97.7,253.4,99.3z"/>
	<path class="st1" d="M266.1,101.8l0.4,0.5c-0.5,0.4-1.6,1.2-2.6,1.8l-0.8,0.5c-2,0-3.3-1.5-3.3-3.7c0-2.5,1.4-4.9,4-5.9l1.1-0.4
		c1.3,0.2,2.2,0.7,2.2,2.1c0,0.5-0.1,1-0.4,1.7l-5,1.6c0,0.2,0,0.4,0,0.5c0,1.8,1.1,2.6,2.1,2.6
		C264.4,102.8,265.4,102.3,266.1,101.8z M261.8,99.3l3.3-1.3c0.1-0.4,0.2-0.7,0.2-1.1c0-0.9-0.5-1.2-1.1-1.3
		C262.7,96.1,262,97.7,261.8,99.3z"/>
	<path class="st1" d="M271.5,96.7l-0.6,2.2l2.7-4.1h1.6l-0.4,1.8h-0.9c-0.5,0.3-1.3,1.1-1.9,1.8l-0.8,1l-0.9,4.9h-1.7l1.5-8.3
		l-1.9,0.7L268,96l3.3-1.5l0.5,0.5L271.5,96.7z"/>
	<path class="st1" d="M276,96.6l-0.2-0.6l3.3-1.5l0.6,0.6l-1.4,7.9l1.7-1l0.3,0.5l-2.8,2l-1-0.6l1.4-8L276,96.6z M278.8,90.5
		l0.6-0.1l1.1,0.1v1l-0.3,0.9l-0.5,0.1l-1.3-0.1l0.1-1L278.8,90.5z"/>
	<path class="st1" d="M288.2,97.5c0.1-0.8,0.1-1.3-0.6-1.3c-0.6,0-1.4,0.4-1.9,0.8l-1,0.7l-1.2,6.7h-1.7l1.5-8.3l-1.9,0.7l-0.2-0.6
		l3.3-1.5l0.6,0.6l-0.2,1l-0.3,0.6l3.4-2.2c1.6,0,2.1,1.1,1.9,2.2l-1.1,6.3l1.7-1l0.3,0.5l-2.8,2l-1-0.6L288.2,97.5z"/>
	<path class="st1" d="M291.5,109l0.3-1.6h3.7c0.6-0.4,1.3-1.4,1.5-2.6l0.3-2l0.3-0.9l-2.8,2.7c-1.4-0.3-2.7-1.2-2.7-3.8
		c0-2.4,1.1-4.5,3.5-5.6l1.3-0.6c0.8,0,2.3,0.4,3.4,0.9l-1.7,9.7c-0.2,0.9-1,1.6-2.2,2.5l-1.7,1.3H291.5z M295.2,103.1l2.3-1.8
		l0.9-4.8c-0.5-0.4-1.7-0.7-2.5-0.7c-1.2,0.9-1.9,2.8-1.9,4.7C293.9,101.9,294.6,102.7,295.2,103.1z"/>
</g>
</svg>
