<svg id="Layer_1" data-name="Layer 1" xmlns="http://www.w3.org/2000/svg" viewBox="0 0 99 303.65">
  <defs>
    <style>
      .cls-1 {
        fill: #d35e13;
      }
    </style>
  </defs>
  <title>APPROVED_UT Towers</title>
  <g>
    <path class="cls-1" d="M91.42,74.82H88.61V71.19H84.87v3.64H82.07v2.92H63.67v-6L49.5,65l-14.16,6.7v6H16.94V75.2H14.13V71.56H10.38V75.2H7.59V97.69H91.42ZM49.49,93.62A10.77,10.77,0,1,1,60.27,82.85,10.77,10.77,0,0,1,49.49,93.62Z"/>
    <path class="cls-1" d="M25,25.75h1.73v23.5H23.64V74.52h8.47V71.72L31,70.34,49.5,61.45,68,70.34l-1.13,1.38v2.81h8.59V49.25H72.34V25.75h1.72l1.73-13.55H69.65V4.36L62.11,3.28,60.39,0H39.07L37.35,3.28l-8,1.09v7.83H23.21ZM32.69,50.9h-3V22.35h3Zm10,3.48H37.89V17.6h4.86Zm9.23,0H47V17.6H52Zm9.15,0H56.26V17.6h4.86Zm8.16-3.48h-3V22.35h3Z"/>
    <path class="cls-1" d="M49.5,75.28a7.57,7.57,0,1,0,7.58,7.57A7.57,7.57,0,0,0,49.5,75.28Z"/>
    <path class="cls-1" d="M1.39,303.65H28.29V127.16H34V303.65H46.63V127.16h5.74V303.65H65V127.16h5.74V303.65h26.9V118.85H1.39Z"/>
    <polygon class="cls-1" points="97.62 111.76 97.62 100.91 1.4 100.91 1.4 111.76 0 111.76 0 115.64 99 115.64 99 111.76 97.62 111.76"/>
  </g>
</svg>
